<svg width="81" height="80" viewBox="0 0 81 80" fill="none" xmlns="http://www.w3.org/2000/svg">
<circle cx="24.7857" cy="24.2857" r="10.8571" stroke="#838799" stroke-width="4"/>
<path d="M67.0715 24.2857C67.0715 30.2819 62.2106 35.1429 56.2143 35.1429C50.2181 35.1429 45.3572 30.2819 45.3572 24.2857C45.3572 18.2895 50.2181 13.4286 56.2143 13.4286C62.2106 13.4286 67.0715 18.2895 67.0715 24.2857Z" stroke="#838799" stroke-width="4"/>
<path d="M35.6429 55.7143C35.6429 61.7105 30.782 66.5714 24.7857 66.5714C18.7895 66.5714 13.9286 61.7105 13.9286 55.7143C13.9286 49.7181 18.7895 44.8571 24.7857 44.8571C30.782 44.8571 35.6429 49.7181 35.6429 55.7143Z" stroke="#838799" stroke-width="4"/>
<circle cx="56.2143" cy="55.7143" r="10.8571" stroke="#838799" stroke-width="4"/>
</svg>
