<svg width="20" height="20" viewBox="0 0 20 20" fill="none" xmlns="http://www.w3.org/2000/svg">
<circle cx="6.0714" cy="6.07143" r="2.46429" stroke="#2C2C2E" stroke-width="1.5"/>
<path d="M16.3929 6.07143C16.3929 7.43242 15.2896 8.53572 13.9286 8.53572C12.5676 8.53572 11.4643 7.43242 11.4643 6.07143C11.4643 4.71045 12.5676 3.60715 13.9286 3.60715C15.2896 3.60715 16.3929 4.71045 16.3929 6.07143Z" stroke="#2C2C2E" stroke-width="1.5"/>
<path d="M8.53569 13.9286C8.53569 15.2896 7.43239 16.3929 6.0714 16.3929C4.71042 16.3929 3.60712 15.2896 3.60712 13.9286C3.60712 12.5676 4.71042 11.4643 6.0714 11.4643C7.43239 11.4643 8.53569 12.5676 8.53569 13.9286Z" stroke="#2C2C2E" stroke-width="1.5"/>
<circle cx="13.9286" cy="13.9286" r="2.46429" stroke="#2C2C2E" stroke-width="1.5"/>
</svg>
