<svg width="59" height="40" viewBox="0 0 59 40" fill="none" xmlns="http://www.w3.org/2000/svg">
<path fill-rule="evenodd" clip-rule="evenodd" d="M54.7722 20.9769L54.272 21.9772H53.9148L54.1827 20.9769H54.7722ZM56.5763 22.2809V21.4949H56.219C55.9868 21.4949 55.826 21.5307 55.7546 21.6021C55.6832 21.6735 55.6474 21.7629 55.6474 21.8879C55.6474 21.9951 55.6832 22.1022 55.7546 22.1737C55.826 22.2451 55.9868 22.2809 56.219 22.2809H56.5763ZM57.13 23.6562H56.5763V22.6738H56.1297L55.4688 23.6562H54.79L55.5581 22.5845C55.2366 22.4416 55.058 22.1915 55.058 21.8164C55.058 21.6021 55.1294 21.4235 55.2902 21.2806C55.4509 21.1377 55.6832 21.0662 55.9868 21.0662H57.13V23.6562ZM52.0571 22.4952V23.2454H52.2358C52.3965 23.2454 52.5037 23.2454 52.593 23.2454C52.6823 23.2454 52.7538 23.2276 52.8252 23.1918C52.8967 23.1561 52.9502 23.1204 52.986 23.0668C53.0217 23.0132 53.0396 22.9418 53.0396 22.8703C53.0396 22.781 53.0217 22.7096 52.986 22.656C52.9502 22.6024 52.8967 22.5667 52.8252 22.5309C52.7538 22.5131 52.593 22.4952 52.3429 22.4952H52.0571ZM52.0571 21.4949V22.1201H52.2715C52.4501 22.1201 52.5751 22.1022 52.6466 22.0844C52.718 22.0665 52.7716 22.0308 52.8073 21.9772C52.8431 21.9236 52.8609 21.8522 52.8609 21.7807C52.8609 21.7093 52.8431 21.6557 52.8073 21.62C52.7716 21.5664 52.718 21.5485 52.6466 21.5307C52.5751 21.5128 52.4322 21.4949 52.2179 21.4949H52.0571ZM51.4856 23.6562V21.0841H52.4144C52.8073 21.0841 53.0753 21.1377 53.2182 21.2449C53.3611 21.352 53.4325 21.4949 53.4325 21.6735C53.4325 21.9236 53.3075 22.1022 53.0753 22.2094V22.2273C53.4504 22.2987 53.629 22.5131 53.629 22.8703C53.629 23.1204 53.5397 23.299 53.3611 23.4419C53.1825 23.5848 52.9145 23.6562 52.5751 23.6562H51.4856ZM49.7886 21.4413C49.5922 21.4413 49.4314 21.5307 49.3064 21.6914C49.1813 21.8522 49.1277 22.0844 49.1277 22.388C49.1277 22.6917 49.1813 22.906 49.3064 23.0847C49.4314 23.2454 49.5922 23.3347 49.7886 23.3347C49.9851 23.3347 50.1459 23.2454 50.2709 23.0847C50.396 22.9239 50.4495 22.6917 50.4495 22.388C50.4495 22.0844 50.396 21.87 50.2709 21.6914C50.1459 21.5128 49.9851 21.4413 49.7886 21.4413ZM49.7886 23.7098C49.3957 23.7098 49.092 23.5848 48.8598 23.3526C48.6455 23.1204 48.5204 22.781 48.5204 22.3702C48.5204 21.9593 48.6276 21.62 48.8598 21.3878C49.0742 21.1555 49.3957 21.0305 49.7886 21.0305C50.1816 21.0305 50.4853 21.1555 50.7175 21.3878C50.9318 21.62 51.0569 21.9593 51.0569 22.3702C51.0569 22.781 50.9497 23.1025 50.7175 23.3526C50.4853 23.5848 50.1816 23.7098 49.7886 23.7098ZM46.8593 21.4949V22.3702H47.0022C47.2879 22.3702 47.4666 22.3344 47.5559 22.2451C47.6452 22.1737 47.6988 22.0487 47.6988 21.8879C47.6988 21.7629 47.6631 21.6557 47.5737 21.5842C47.4844 21.5128 47.3058 21.4771 47.0557 21.4771H46.8593V21.4949ZM46.8593 22.781V23.6562H46.2877V21.0841H47.2522C47.5916 21.0841 47.8417 21.1555 48.0024 21.2806C48.1811 21.4235 48.2704 21.62 48.2704 21.87C48.2704 22.138 48.1811 22.3523 47.9846 22.5309C47.7881 22.6917 47.538 22.781 47.2344 22.781H46.8593ZM44.5908 21.4413C44.3943 21.4413 44.2335 21.5307 44.1085 21.6914C43.9835 21.8522 43.9299 22.0844 43.9299 22.388C43.9299 22.6917 43.9835 22.906 44.1085 23.0847C44.2335 23.2454 44.3943 23.3347 44.5908 23.3347C44.7873 23.3347 44.948 23.2454 45.073 23.0847C45.1981 22.9239 45.2517 22.6917 45.2517 22.388C45.2517 22.0844 45.1981 21.87 45.073 21.6914C44.948 21.5128 44.7873 21.4413 44.5908 21.4413ZM44.5908 23.7098C44.1978 23.7098 43.8941 23.5848 43.6619 23.3526C43.4476 23.1204 43.3226 22.781 43.3226 22.3702C43.3226 21.9593 43.4297 21.62 43.6619 21.3878C43.8763 21.1555 44.1978 21.0305 44.5908 21.0305C44.9837 21.0305 45.2874 21.1555 45.5196 21.3878C45.7518 21.62 45.859 21.9593 45.859 22.3702C45.859 22.781 45.7518 23.1025 45.5196 23.3526C45.2874 23.5848 44.9837 23.7098 44.5908 23.7098ZM42.3044 23.2276V21.5128H41.5542C41.5185 22.1558 41.3934 22.7274 41.1612 23.2276H42.3044ZM43.1082 24.2457H42.5723V23.6384H40.9648V24.2457H40.4289V23.2276H40.6254C40.8933 22.6381 41.0362 21.9236 41.0362 21.0841H42.8581V23.2276H43.1082V24.2457ZM38.1247 23.5312V23.0132H38.1783C38.3033 23.0847 38.4283 23.1561 38.5891 23.2097C38.7498 23.2633 38.8749 23.299 38.9999 23.299C39.4107 23.299 39.6072 23.1561 39.6072 22.8524C39.6072 22.7096 39.5715 22.6202 39.5001 22.5667C39.4286 22.5131 39.3036 22.4773 39.0892 22.4773H38.607V22.0844H39.0714C39.2321 22.0844 39.3393 22.0665 39.4286 22.0129C39.5001 21.9593 39.5358 21.87 39.5358 21.745C39.5358 21.5485 39.375 21.4413 39.0535 21.4413C38.8392 21.4413 38.5712 21.5306 38.2676 21.7271H38.214V21.2091C38.5176 21.102 38.8213 21.0484 39.125 21.0484C39.4465 21.0484 39.6965 21.102 39.8752 21.2091C40.0538 21.3163 40.1252 21.4771 40.1252 21.6735C40.1252 21.8164 40.0895 21.9415 40.0002 22.0487C39.9109 22.1558 39.7859 22.2273 39.643 22.263V22.2809C40.0181 22.3523 40.1967 22.5667 40.1967 22.8882C40.1967 23.1382 40.0895 23.3526 39.893 23.4955C39.6965 23.6384 39.4107 23.7098 39.0356 23.7098C38.7141 23.7098 38.4105 23.6562 38.1247 23.5312ZM35.3203 21.4949V22.3702H35.4632C35.749 22.3702 35.9276 22.3344 36.0169 22.2451C36.1063 22.1737 36.1598 22.0487 36.1598 21.8879C36.1598 21.7629 36.1241 21.6557 36.0348 21.5842C35.9455 21.5128 35.7669 21.4771 35.5168 21.4771H35.3203V21.4949ZM35.3203 22.781V23.6562H34.7487V21.0841H35.7133C36.0527 21.0841 36.3027 21.1555 36.4635 21.2806C36.6421 21.4235 36.7136 21.62 36.7136 21.87C36.7136 22.138 36.6243 22.3523 36.4278 22.5309C36.2313 22.6917 35.9812 22.781 35.6776 22.781H35.3203ZM33.0518 21.4413C32.8553 21.4413 32.6946 21.5307 32.5695 21.6914C32.4445 21.8522 32.3909 22.0844 32.3909 22.388C32.3909 22.6917 32.4445 22.906 32.5695 23.0847C32.6946 23.2454 32.8553 23.3347 33.0518 23.3347C33.2483 23.3347 33.4091 23.2454 33.5341 23.0847C33.6591 22.9239 33.7127 22.6917 33.7127 22.388C33.7127 22.0844 33.6591 21.87 33.5341 21.6914C33.4091 21.5128 33.2483 21.4413 33.0518 21.4413ZM33.0518 23.7098C32.6589 23.7098 32.3552 23.5848 32.123 23.3526C31.9086 23.1204 31.7836 22.781 31.7836 22.3702C31.7836 21.9593 31.8908 21.62 32.123 21.3878C32.3373 21.1555 32.6589 21.0305 33.0518 21.0305C33.4448 21.0305 33.7485 21.1555 33.9807 21.3878C34.195 21.62 34.32 21.9593 34.32 22.3702C34.32 22.781 34.2129 23.1025 33.9807 23.3526C33.7485 23.5848 33.4448 23.7098 33.0518 23.7098ZM31.7479 21.5128H30.9084V23.6562H30.3368V21.5128H29.4973V21.0841H31.7479V21.5128ZM29.4973 23.6562H28.7828L27.9968 22.5845H27.7825V23.6562H27.2109V21.0841H27.7825V22.1737C27.9254 22.1737 28.0326 22.138 28.104 22.0844C28.1576 22.0308 28.2469 21.9415 28.3184 21.7986C28.3898 21.6557 28.4613 21.5485 28.497 21.4592C28.5327 21.3878 28.5863 21.3163 28.6577 21.2449C28.7113 21.1734 28.7828 21.1377 28.8721 21.102C28.9614 21.0841 29.0507 21.0662 29.1757 21.0662C29.2293 21.0662 29.2651 21.0662 29.3008 21.0662C29.3365 21.0662 29.3544 21.0662 29.3722 21.0662V21.5664H29.1936C29.1043 21.5664 29.0328 21.5842 28.9793 21.6378C28.9257 21.6914 28.8721 21.7807 28.8006 21.9236C28.7113 22.1201 28.6042 22.263 28.5148 22.3166L29.4973 23.6562ZM26.7286 23.6562H24.9424V21.0841H26.7286V21.5128H25.4961V22.0665H26.6393V22.4952H25.4961V23.2454H26.7286V23.6562ZM22.9419 22.4952V23.2454H23.1205C23.2812 23.2454 23.3884 23.2454 23.4777 23.2454C23.567 23.2454 23.6385 23.2276 23.7099 23.1918C23.7814 23.1561 23.835 23.1204 23.8707 23.0668C23.9064 23.0132 23.9243 22.9418 23.9243 22.8703C23.9243 22.781 23.9064 22.7096 23.8707 22.656C23.835 22.6024 23.7814 22.5667 23.7099 22.5309C23.6385 22.5131 23.4777 22.4952 23.2277 22.4952H22.9419ZM22.9419 21.4949V22.1201H23.1562C23.3348 22.1201 23.4599 22.1022 23.5313 22.0844C23.6028 22.0665 23.6563 22.0308 23.6921 21.9772C23.7278 21.9236 23.7457 21.8522 23.7457 21.7807C23.7457 21.7093 23.7278 21.6557 23.6921 21.62C23.6563 21.5664 23.6028 21.5485 23.5313 21.5307C23.4599 21.5128 23.317 21.4949 23.1026 21.4949H22.9419ZM22.3703 23.6562V21.0841H23.2991C23.6921 21.0841 23.96 21.1377 24.1029 21.2449C24.2458 21.352 24.3172 21.4949 24.3172 21.6735C24.3172 21.9236 24.1922 22.1022 23.96 22.2094V22.2273C24.3351 22.2987 24.5137 22.5131 24.5137 22.8703C24.5137 23.1204 24.4244 23.299 24.2458 23.4419C24.0672 23.5848 23.7992 23.6562 23.4599 23.6562H22.3703ZM49.6993 17.0473V16.2435H49.3421C49.1099 16.2435 48.9491 16.2792 48.8777 16.3506C48.8062 16.4221 48.7705 16.5114 48.7705 16.6364C48.7705 16.7436 48.8062 16.8508 48.8777 16.9222C48.9491 16.9937 49.1099 17.0294 49.3421 17.0294H49.6993V17.0473ZM50.2531 18.4226H49.6993V17.4402H49.2528L48.5919 18.4226H47.9131L48.6812 17.3509C48.3597 17.208 48.1811 16.9579 48.1811 16.5828C48.1811 16.3685 48.2525 16.1899 48.4133 16.047C48.574 15.9041 48.8062 15.8326 49.1099 15.8326H50.2531V18.4226ZM47.7166 18.4226H46.3055V18.0475H46.7342V16.2435H46.3055V15.8684H47.7166V16.2435H47.3058V18.0475H47.7166V18.4226ZM45.8054 18.4226H45.2338V16.2792H44.1621V18.4226H43.5905V15.8505H45.8054V18.4226ZM42.358 17.4581L42.0008 16.4221L41.6435 17.4581H42.358ZM43.2868 18.4226H42.6974L42.5009 17.8689H41.4828L41.2863 18.4226H40.7147L41.6792 15.8505H42.3044L43.2868 18.4226ZM39.3214 16.2435V17.1187H39.4643C39.7501 17.1187 39.9287 17.083 40.0181 16.9937C40.1074 16.9222 40.161 16.7972 40.161 16.6364C40.161 16.5114 40.1252 16.4042 40.0359 16.3328C39.9466 16.2613 39.768 16.2256 39.5179 16.2256H39.3214V16.2435ZM39.3214 17.5474V18.4226H38.7498V15.8505H39.7144C40.0538 15.8505 40.3039 15.9219 40.4646 16.047C40.6432 16.1899 40.7325 16.3864 40.7325 16.6364C40.7325 16.9044 40.6432 17.1187 40.4467 17.2973C40.2503 17.4581 40.0002 17.5474 39.6965 17.5474H39.3214ZM38.2854 18.4226H36.4992V15.8505H38.2854V16.2792H37.0529V16.8329H38.1961V17.2616H37.0529V18.0118H38.2854V18.4226ZM36.142 16.2792H35.3025V18.4226H34.7487V16.2792H33.9092V15.8505H36.1598V16.2792H36.142ZM32.5874 16.1899C32.3909 16.1899 32.2302 16.2792 32.1051 16.4399C31.9801 16.6007 31.9265 16.8329 31.9265 17.1366C31.9265 17.4402 31.9801 17.6546 32.1051 17.8332C32.2302 17.9939 32.3909 18.0833 32.5874 18.0833C32.7839 18.0833 32.9447 17.9939 33.0697 17.8332C33.1947 17.6724 33.2483 17.4402 33.2483 17.1366C33.2483 16.8329 33.1947 16.6186 33.0697 16.4399C32.9447 16.2613 32.8018 16.1899 32.5874 16.1899ZM32.5874 18.4762C32.1944 18.4762 31.8908 18.3512 31.6586 18.119C31.4264 17.8868 31.3192 17.5474 31.3192 17.1366C31.3192 16.7257 31.4264 16.3864 31.6586 16.1541C31.8729 15.9219 32.1944 15.7969 32.5874 15.7969C32.9804 15.7969 33.284 15.9219 33.5162 16.1541C33.7306 16.3864 33.8556 16.7257 33.8556 17.1366C33.8556 17.5474 33.7485 17.8689 33.5162 18.119C33.284 18.3512 32.9804 18.4762 32.5874 18.4762ZM30.9977 18.4226H29.5866V18.0475H30.0153V16.2435H29.5866V15.8684H30.9977V16.2435H30.5869V18.0475H30.9977V18.4226ZM27.1752 18.2976V17.7796H27.2288C27.3538 17.8511 27.4788 17.9225 27.6396 17.9761C27.8004 18.0297 27.9254 18.0654 28.0504 18.0654C28.4613 18.0654 28.6577 17.9225 28.6577 17.6188C28.6577 17.4759 28.622 17.3866 28.5506 17.3331C28.4791 17.2795 28.3541 17.2437 28.1397 17.2437H27.6575V16.8508H28.1219C28.2826 16.8508 28.3898 16.8329 28.4791 16.7793C28.5506 16.7257 28.5863 16.6364 28.5863 16.4935C28.5863 16.297 28.4255 16.1899 28.104 16.1899C27.8897 16.1899 27.6217 16.2792 27.3181 16.4757H27.2466V15.9577C27.5503 15.8505 27.8539 15.7969 28.1576 15.7969C28.4791 15.7969 28.7292 15.8505 28.9078 15.9577C29.0864 16.0648 29.1579 16.2256 29.1579 16.4221C29.1579 16.565 29.1222 16.69 29.015 16.7972C28.9257 16.9044 28.8006 16.9758 28.6577 17.0115V17.0294C29.0328 17.1008 29.2115 17.3152 29.2115 17.6367C29.2115 17.8868 29.1043 18.1011 28.9078 18.244C28.7113 18.3869 28.4255 18.4584 28.0504 18.4584C27.7646 18.4584 27.461 18.4048 27.1752 18.2976ZM26.8537 18.4226H25.4604V18.0475H25.8891V16.2435H25.4604V15.8684H26.8537V16.2435H26.4428V18.0475H26.8537V18.4226ZM23.3884 17.7975V16.4399C22.9954 16.4935 22.7811 16.7079 22.7811 17.1008C22.7811 17.4938 22.9954 17.726 23.3884 17.7975ZM23.9421 16.4399V17.7975C24.1565 17.7617 24.2994 17.6903 24.3887 17.5831C24.478 17.4759 24.5316 17.3152 24.5316 17.1008C24.5316 16.9222 24.478 16.7615 24.3708 16.6543C24.2815 16.5293 24.1386 16.4578 23.9421 16.4399ZM23.9421 18.1547V18.4405H23.3884V18.1547C23.0133 18.1368 22.7275 18.0297 22.5132 17.8511C22.2988 17.6724 22.1917 17.4224 22.1917 17.1187C22.1917 16.815 22.2988 16.565 22.4953 16.4042C22.6918 16.2256 22.9954 16.1363 23.3705 16.1006V15.8326H23.9243V16.1006C24.2994 16.1184 24.603 16.2256 24.7995 16.4042C24.996 16.5828 25.1032 16.815 25.1032 17.1366C25.1032 17.4402 24.996 17.6903 24.7817 17.8689C24.6209 18.0118 24.3172 18.119 23.9421 18.1547Z" fill="#62A196"/>
<path d="M35.356 32.2301L35.122 32.0423L35.1212 32.0433L35.356 32.2301ZM32.2301 4.63309L32.4171 4.39849L32.4169 4.39835L32.2301 4.63309ZM18.1726 12.9033L18.2953 13.177L18.2971 13.1762L18.1726 12.9033ZM14.886 14.4037L15.0604 14.6479L15.066 14.6437L14.886 14.4037ZM11.8673 15.4397L11.7009 15.1901L11.699 15.1913L11.8673 15.4397ZM7.08022 27.1572L6.81103 27.0248L6.81084 27.0252L7.08022 27.1572ZM4.15083 31.5692L3.87591 31.4491L3.81337 31.5923L3.89485 31.7256L4.15083 31.5692ZM6.56222 34.3557L6.34209 34.5595L6.51218 34.7432L6.72336 34.6087L6.56222 34.3557ZM10.6526 28.0325L10.4113 27.8543L10.4106 27.8552L10.6526 28.0325ZM13.5999 26.1391L13.8698 26.0081L13.8691 26.0067L13.5999 26.1391ZM18.387 10.5097L18.627 10.6898L18.6306 10.6848L18.387 10.5097ZM18.7442 0.721289L18.63 0.443868L18.6268 0.445189L18.7442 0.721289ZM17.208 1.97164L17.465 2.12639L17.4653 2.12599L17.208 1.97164ZM16.6007 5.86558L16.8612 6.01442L16.8671 6.00409L16.8722 5.99332L16.6007 5.86558ZM16.2435 8.77711L16.4876 8.60274L16.4811 8.59364L16.474 8.58505L16.2435 8.77711ZM16.8151 9.13435L16.6297 9.3703L16.6351 9.37435L16.8151 9.13435ZM18.6728 22.2273L18.9635 22.1534L18.9631 22.1517L18.6728 22.2273ZM17.4403 17.8868L17.1693 18.0156L17.1703 18.0176L17.4403 17.8868ZM10.9742 19.9409L11.0224 20.2371L11.0267 20.2363L10.9742 19.9409ZM9.59879 20.3339L9.4777 20.0594L9.35216 20.1148L9.31196 20.246L9.59879 20.3339ZM9.33086 27.7645L9.08325 27.5951L9.08124 27.5981L9.33086 27.7645ZM7.58037 29.265L7.81231 29.4553L7.81463 29.4524L7.58037 29.265ZM7.09808 27.1572L6.82831 27.026L6.82814 27.0263L7.09808 27.1572ZM9.38444 28.0325L9.49587 28.311L9.49982 28.3094L9.38444 28.0325ZM17.1366 20.7269L17.0816 21.0218L17.0836 21.0222L17.1366 20.7269ZM38.0061 27.0477C37.3023 28.8422 36.335 30.5305 35.122 32.0423L35.59 32.4178C36.8419 30.8574 37.8394 29.1161 38.5647 27.2668L38.0061 27.0477ZM35.1212 32.0433C28.4727 40.3979 16.3009 41.7701 7.9458 35.1212L7.57219 35.5907C16.1861 42.4455 28.7354 41.0313 35.5907 32.4169L35.1212 32.0433ZM7.9458 35.1212C-0.408795 28.4727 -1.78106 16.3009 4.86786 7.94577L4.39838 7.57216C-2.45646 16.186 -1.04224 28.7354 7.57219 35.5907L7.9458 35.1212ZM4.86786 7.94577C11.5164 -0.408826 23.6882 -1.78109 32.0433 4.86783L32.4169 4.39835C23.803 -2.45649 11.2536 -1.04227 4.39838 7.57216L4.86786 7.94577ZM32.0431 4.8677C34.3823 6.732 36.2468 9.10646 37.5135 11.8157L38.057 11.5616C36.7515 8.76926 34.8292 6.32095 32.4171 4.39849L32.0431 4.8677ZM19.6945 0.363775L19.6588 39.6426L20.2588 39.6431L20.2945 0.364321L19.6945 0.363775ZM19.9945 10.6526C19.721 10.5295 19.721 10.5295 19.721 10.5294C19.721 10.5294 19.721 10.5294 19.721 10.5294C19.721 10.5294 19.721 10.5294 19.721 10.5294C19.721 10.5295 19.7209 10.5297 19.7207 10.53C19.7205 10.5306 19.72 10.5316 19.7194 10.533C19.7181 10.5358 19.716 10.5403 19.7132 10.5463C19.7076 10.5583 19.6991 10.5765 19.6877 10.6001C19.665 10.6472 19.6311 10.7159 19.5871 10.8001C19.499 10.9688 19.3715 11.1979 19.2139 11.4402C18.8884 11.9407 18.4725 12.4367 18.0481 12.6303L18.2971 13.1762C18.8908 12.9054 19.3859 12.2761 19.7168 11.7674C19.8875 11.5051 20.0245 11.2586 20.1189 11.0779C20.1662 10.9873 20.2031 10.9128 20.2283 10.8605C20.2409 10.8343 20.2506 10.8137 20.2573 10.7993C20.2606 10.7921 20.2632 10.7865 20.265 10.7825C20.2659 10.7805 20.2666 10.779 20.2672 10.7778C20.2674 10.7773 20.2676 10.7768 20.2678 10.7765C20.2679 10.7763 20.2679 10.7761 20.268 10.776C20.268 10.776 20.268 10.7759 20.2681 10.7759C20.2681 10.7758 20.2681 10.7757 19.9945 10.6526ZM18.0499 12.6295C17.5332 12.8611 16.8504 13.1365 16.21 13.4113C15.8938 13.5469 15.5906 13.6814 15.3335 13.8065C15.0815 13.9292 14.8558 14.0513 14.706 14.1637L15.066 14.6437C15.1662 14.5685 15.3468 14.4673 15.5961 14.346C15.8403 14.2272 16.1332 14.0971 16.4466 13.9626C17.0655 13.6971 17.776 13.4098 18.2953 13.177L18.0499 12.6295ZM14.7116 14.1596C14.4593 14.3397 14.2828 14.471 14.1686 14.5578C14.1115 14.6012 14.0699 14.6335 14.0423 14.6553C14.0285 14.6661 14.0181 14.6744 14.011 14.6801C14.0075 14.6829 14.0048 14.6851 14.0028 14.6867C14.0019 14.6875 14.0011 14.6881 14.0005 14.6885C14.0002 14.6888 14 14.689 13.9998 14.6891C13.9997 14.6892 13.9996 14.6893 13.9996 14.6893C13.9995 14.6894 13.9995 14.6894 13.9995 14.6894C13.9994 14.6894 13.9994 14.6894 13.9994 14.6895C13.9994 14.6895 13.9994 14.6895 14.1893 14.9217C14.3793 15.1539 14.3793 15.1539 14.3793 15.1539C14.3793 15.1539 14.3793 15.1539 14.3792 15.1539C14.3792 15.1539 14.3792 15.1539 14.3792 15.1539C14.3792 15.154 14.3792 15.154 14.3792 15.154C14.3792 15.154 14.3792 15.1539 14.3793 15.1539C14.3795 15.1537 14.3799 15.1534 14.3805 15.1529C14.3817 15.1519 14.3837 15.1503 14.3865 15.1481C14.3921 15.1436 14.401 15.1365 14.4134 15.1267C14.4383 15.1071 14.4771 15.0769 14.5316 15.0355C14.6407 14.9526 14.8125 14.8249 15.0603 14.6478L14.7116 14.1596ZM14.1893 14.9217C14.2465 14.6272 14.2464 14.6271 14.2462 14.6271C14.2462 14.6271 14.2461 14.6271 14.246 14.6271C14.2458 14.627 14.2456 14.627 14.2454 14.627C14.2449 14.6269 14.2444 14.6268 14.2438 14.6267C14.2426 14.6264 14.2411 14.6262 14.2394 14.6258C14.2358 14.6252 14.2311 14.6244 14.2253 14.6234C14.2137 14.6214 14.1975 14.6189 14.1773 14.6161C14.1367 14.6104 14.0794 14.6035 14.0079 14.598C13.8651 14.5869 13.6642 14.581 13.426 14.6003C12.9504 14.639 12.3169 14.7793 11.7009 15.1901L12.0337 15.6893C12.5429 15.3498 13.0705 15.2312 13.4746 15.1984C13.6762 15.182 13.8449 15.1872 13.9616 15.1962C14.0199 15.2007 14.0649 15.2062 14.0942 15.2103C14.1088 15.2123 14.1195 15.214 14.126 15.2151C14.1292 15.2156 14.1313 15.216 14.1324 15.2162C14.1329 15.2163 14.1332 15.2164 14.1331 15.2164C14.1331 15.2164 14.133 15.2163 14.1329 15.2163C14.1328 15.2163 14.1327 15.2163 14.1326 15.2163C14.1325 15.2162 14.1324 15.2162 14.1324 15.2162C14.1323 15.2162 14.1322 15.2162 14.1893 14.9217ZM11.699 15.1913C10.5425 15.9747 9.64952 17.1763 9.3786 18.2987L9.96185 18.4395C10.1911 17.4898 10.9771 16.405 12.0355 15.6881L11.699 15.1913ZM9.3786 18.2987C9.24646 18.8461 9.21885 19.3345 9.20306 19.6933C9.19491 19.8784 9.19033 20.0137 9.17872 20.1162C9.17303 20.1664 9.16692 20.1957 9.16237 20.2109C9.15681 20.2294 9.15989 20.2056 9.19016 20.1754L9.61443 20.5996C9.68489 20.5292 9.71867 20.4445 9.73705 20.3833C9.75642 20.3188 9.76748 20.2493 9.77491 20.1837C9.78953 20.0546 9.795 19.8896 9.80248 19.7197C9.81794 19.3684 9.84393 18.928 9.96185 18.4395L9.3786 18.2987ZM9.19016 20.1754C8.24556 21.12 7.92529 22.3397 7.69861 23.5426C7.46717 24.7709 7.33234 25.9651 6.81103 27.0248L7.34941 27.2897C7.91769 26.1345 8.06865 24.819 8.28823 23.6538C8.51257 22.4632 8.80854 21.4055 9.61443 20.5996L9.19016 20.1754ZM6.81084 27.0252C6.38015 27.9038 5.83682 28.5952 5.29938 29.2782C4.76738 29.9543 4.23319 30.6311 3.87591 31.4491L4.42575 31.6893C4.74723 30.9532 5.23119 30.3351 5.77091 29.6492C6.3052 28.9702 6.88719 28.2326 7.3496 27.2893L6.81084 27.0252ZM4.15083 31.5692C3.89485 31.7256 3.89486 31.7256 3.89488 31.7257C3.89488 31.7257 3.8949 31.7257 3.89492 31.7257C3.89495 31.7258 3.89499 31.7259 3.89505 31.7259C3.89515 31.7261 3.89529 31.7263 3.89546 31.7266C3.89581 31.7272 3.8963 31.728 3.89693 31.729C3.89819 31.7311 3.90001 31.734 3.90236 31.7378C3.90707 31.7454 3.91392 31.7565 3.92274 31.7706C3.94037 31.7988 3.9659 31.8392 3.99793 31.889C4.06191 31.9883 4.15218 32.1255 4.25749 32.2766C4.46369 32.5724 4.743 32.9445 5.00121 33.1829L5.40818 32.742C5.20198 32.5516 4.95436 32.2271 4.74973 31.9335C4.64962 31.7899 4.5635 31.6591 4.50245 31.5642C4.47196 31.5168 4.44781 31.4786 4.43139 31.4523C4.42318 31.4392 4.41692 31.4291 4.41276 31.4224C4.41068 31.419 4.40913 31.4165 4.40814 31.4149C4.40764 31.4141 4.40727 31.4135 4.40705 31.4131C4.40694 31.4129 4.40687 31.4128 4.40683 31.4128C4.40681 31.4127 4.4068 31.4127 4.40679 31.4127C4.40679 31.4127 4.4068 31.4127 4.4068 31.4127C4.4068 31.4127 4.40681 31.4127 4.15083 31.5692ZM5.00121 33.1829C5.22558 33.39 5.55894 33.7319 5.8406 34.0269C5.98046 34.1735 6.10595 34.3067 6.19647 34.4034C6.24172 34.4517 6.2782 34.4908 6.30334 34.5178C6.3159 34.5313 6.32563 34.5417 6.3322 34.5488C6.33548 34.5524 6.33797 34.555 6.33963 34.5568C6.34047 34.5577 6.34109 34.5584 6.3415 34.5588C6.3417 34.5591 6.34186 34.5592 6.34195 34.5593C6.342 34.5594 6.34204 34.5594 6.34206 34.5595C6.34207 34.5595 6.34208 34.5595 6.34208 34.5595C6.34209 34.5595 6.34209 34.5595 6.56222 34.3557C6.78234 34.1518 6.78234 34.1518 6.78233 34.1518C6.78232 34.1518 6.7823 34.1518 6.78229 34.1518C6.78226 34.1517 6.78221 34.1517 6.78215 34.1516C6.78203 34.1515 6.78186 34.1513 6.78163 34.1511C6.78118 34.1506 6.78052 34.1499 6.77965 34.1489C6.7779 34.147 6.77532 34.1443 6.77195 34.1406C6.76521 34.1334 6.75529 34.1227 6.74253 34.109C6.71701 34.0816 6.68009 34.042 6.63435 33.9932C6.54291 33.8955 6.41609 33.7609 6.27462 33.6127C5.99363 33.3183 5.64823 32.9636 5.40818 32.742L5.00121 33.1829ZM6.72336 34.6087C8.57308 33.4308 9.22369 32.3646 9.61293 31.2895C10.0022 30.2142 10.0978 29.2979 10.8947 28.2097L10.4106 27.8552C9.54628 29.0355 9.39182 30.1377 9.04876 31.0852C8.70565 32.033 8.14164 32.9942 6.40107 34.1026L6.72336 34.6087ZM10.894 28.2106C11.1807 27.8223 11.6025 27.1546 11.9696 26.5083C12.1537 26.1842 12.3263 25.8614 12.4627 25.5779C12.5959 25.3012 12.7053 25.0404 12.7492 24.8484L12.1643 24.7147C12.1367 24.8353 12.0541 25.0434 11.9221 25.3177C11.7934 25.5851 11.6277 25.8953 11.4479 26.212C11.0871 26.8473 10.6783 27.4925 10.4113 27.8543L10.894 28.2106ZM12.7492 24.8484C12.8249 24.5171 12.88 24.0821 12.9159 23.7388C12.934 23.5653 12.9476 23.4118 12.9567 23.3016C12.9612 23.2464 12.9646 23.202 12.9669 23.1713C12.9681 23.1559 12.9689 23.1439 12.9695 23.1358C12.9698 23.1317 12.97 23.1285 12.9702 23.1263C12.9702 23.1252 12.9703 23.1244 12.9703 23.1238C12.9704 23.1235 12.9704 23.1233 12.9704 23.1231C12.9704 23.1231 12.9704 23.123 12.9704 23.1229C12.9704 23.1229 12.9704 23.1229 12.9704 23.1229C12.9704 23.1229 12.9704 23.1228 12.6711 23.1025C12.3718 23.0822 12.3718 23.0822 12.3718 23.0822C12.3718 23.0822 12.3718 23.0822 12.3718 23.0822C12.3718 23.0822 12.3718 23.0823 12.3718 23.0823C12.3718 23.0824 12.3718 23.0826 12.3717 23.0828C12.3717 23.0832 12.3717 23.0839 12.3716 23.0848C12.3715 23.0867 12.3713 23.0895 12.371 23.0933C12.3705 23.1008 12.3697 23.1121 12.3686 23.1268C12.3664 23.1561 12.3631 23.1989 12.3587 23.2524C12.3499 23.3593 12.3367 23.5083 12.3191 23.6764C12.2836 24.0163 12.2314 24.4209 12.1643 24.7147L12.7492 24.8484ZM12.6711 23.1025C12.377 23.1619 12.377 23.1619 12.377 23.162C12.377 23.162 12.377 23.162 12.3771 23.1621C12.3771 23.1622 12.3771 23.1623 12.3771 23.1624C12.3772 23.1627 12.3773 23.1631 12.3774 23.1637C12.3776 23.1647 12.3779 23.1663 12.3783 23.1682C12.3791 23.1722 12.3803 23.178 12.3819 23.1855C12.385 23.2006 12.3896 23.2226 12.3956 23.2508C12.4076 23.3073 12.4254 23.3889 12.4483 23.4901C12.4941 23.6923 12.5608 23.9733 12.6446 24.2891C12.8105 24.9149 13.0488 25.6984 13.3307 26.2715L13.8691 26.0067C13.6151 25.4902 13.389 24.7555 13.2245 24.1353C13.1431 23.8281 13.0781 23.5544 13.0334 23.3575C13.0112 23.2591 12.994 23.1801 12.9824 23.1258C12.9767 23.0987 12.9723 23.0778 12.9694 23.0638C12.9679 23.0568 12.9669 23.0515 12.9662 23.0481C12.9658 23.0463 12.9655 23.0451 12.9654 23.0442C12.9653 23.0438 12.9652 23.0435 12.9652 23.0434C12.9652 23.0433 12.9652 23.0432 12.9652 23.0432C12.9652 23.0432 12.9652 23.0432 12.9652 23.0432C12.9652 23.0432 12.9652 23.0432 12.6711 23.1025ZM13.33 26.27C14.0257 27.7038 14.1839 29.9492 13.9666 32.2261C13.75 34.4959 13.1672 36.7272 12.4412 38.1102L12.9724 38.3891C13.7468 36.9141 14.3429 34.5994 14.5639 32.2831C14.7843 29.9739 14.6388 27.593 13.8698 26.0081L13.33 26.27ZM19.9946 9.58456C19.3433 9.58456 18.6475 9.63326 18.1434 10.3346L18.6306 10.6848C18.9481 10.243 19.3597 10.1846 19.9946 10.1846V9.58456ZM18.147 10.3297C17.8499 10.7258 17.7751 11.2035 17.7633 11.6495C17.7574 11.8743 17.7675 12.1024 17.7784 12.3183C17.7895 12.538 17.8012 12.743 17.8012 12.939H18.4012C18.4012 12.7241 18.3883 12.5004 18.3776 12.2881C18.3667 12.072 18.3579 11.8646 18.3631 11.6653C18.3737 11.2627 18.4417 10.9367 18.627 10.6897L18.147 10.3297ZM19.9945 0.64984C20.0748 0.360785 20.0747 0.36076 20.0746 0.360735C20.0746 0.360726 20.0745 0.3607 20.0745 0.360682C20.0743 0.360645 20.0742 0.360605 20.074 0.360562C20.0737 0.360478 20.0734 0.360382 20.073 0.360276C20.0722 0.360065 20.0713 0.359812 20.0702 0.35952C20.068 0.358936 20.0652 0.358196 20.0618 0.357318C20.0549 0.355564 20.0457 0.353259 20.0341 0.350557C20.0111 0.345158 19.9789 0.338151 19.9389 0.330791C19.8591 0.316109 19.7471 0.299797 19.6141 0.292268C19.351 0.277377 18.9894 0.295896 18.63 0.443885L18.8584 0.998692C19.1063 0.896612 19.3699 0.879407 19.5801 0.891309C19.6838 0.897176 19.7705 0.90989 19.8303 0.920885C19.8601 0.926363 19.8828 0.931357 19.8973 0.93475C19.9045 0.936444 19.9097 0.937732 19.9126 0.938472C19.914 0.938842 19.9149 0.939074 19.9152 0.939151C19.9153 0.939189 19.9153 0.939188 19.9152 0.939147C19.9151 0.939126 19.915 0.939094 19.9148 0.939053C19.9147 0.939032 19.9146 0.939008 19.9146 0.938982C19.9145 0.938969 19.9144 0.938947 19.9144 0.938941C19.9143 0.938918 19.9142 0.938895 19.9945 0.64984ZM18.6268 0.445189C18.2259 0.615586 17.8402 0.908048 17.5481 1.17001C17.4001 1.30275 17.2714 1.43195 17.1715 1.54109C17.0769 1.6445 16.9943 1.74485 16.9508 1.81729L17.4653 2.12599C17.4653 2.12599 17.4653 2.12596 17.4653 2.1259C17.4654 2.12584 17.4654 2.12575 17.4655 2.12563C17.4657 2.12539 17.4659 2.12505 17.4662 2.12461C17.4667 2.12371 17.4675 2.12247 17.4686 2.12087C17.4708 2.11765 17.4738 2.1134 17.4776 2.10808C17.4854 2.09737 17.4958 2.08377 17.5091 2.06736C17.5356 2.0345 17.5708 1.99345 17.6141 1.94614C17.7007 1.85155 17.8154 1.73625 17.9487 1.61669C18.2192 1.37405 18.548 1.13065 18.8615 0.997388L18.6268 0.445189ZM16.951 1.81688C16.4121 2.71194 16.2921 3.67023 16.2829 4.424C16.2783 4.80081 16.3014 5.13417 16.3157 5.38007C16.3231 5.50607 16.3277 5.60272 16.3268 5.67577C16.3258 5.76391 16.3161 5.76581 16.3293 5.73784L16.8722 5.99332C16.9211 5.88944 16.9259 5.76463 16.9268 5.68266C16.9279 5.5856 16.9219 5.46874 16.9147 5.34523C16.9 5.09211 16.8785 4.78243 16.8828 4.43136C16.8915 3.72936 17.0037 2.89251 17.465 2.12639L16.951 1.81688ZM16.3403 5.71674C16.352 5.69628 16.3572 5.69798 16.3027 5.74584C16.2641 5.77972 16.1979 5.83523 16.1363 5.89682C16.011 6.02209 15.8511 6.22302 15.8367 6.5115L16.4359 6.54146C16.4394 6.4727 16.476 6.40569 16.5606 6.32108C16.6039 6.27773 16.646 6.24282 16.6984 6.19687C16.7348 6.16491 16.8138 6.0974 16.8612 6.01442L16.3403 5.71674ZM15.8367 6.5115C15.8182 6.88226 15.8363 7.84117 15.8549 8.10186L16.4534 8.05911C16.4363 7.81965 16.4188 6.88519 16.4359 6.54146L15.8367 6.5115ZM15.8549 8.10186C15.8589 8.15751 15.861 8.21959 15.8633 8.28951C15.8655 8.35692 15.8678 8.43182 15.8728 8.50302C15.8776 8.57326 15.8855 8.65055 15.9014 8.72261C15.9156 8.78745 15.9439 8.88617 16.013 8.96916L16.474 8.58505C16.4985 8.61445 16.4955 8.63057 16.4874 8.59381C16.4809 8.56428 16.4754 8.521 16.4713 8.46174C16.4673 8.40344 16.4652 8.33991 16.4629 8.27001C16.4608 8.20261 16.4584 8.12849 16.4534 8.05911L15.8549 8.10186ZM15.9994 8.95148C16.0533 9.02695 16.1204 9.07733 16.1758 9.11213C16.2299 9.14608 16.2898 9.17528 16.3372 9.19845C16.4391 9.24826 16.5328 9.29407 16.6297 9.37024L17.0004 8.89845C16.8473 8.77815 16.6998 8.70785 16.6008 8.65942C16.5477 8.63347 16.5172 8.61802 16.4948 8.60396C16.4738 8.59076 16.4784 8.58978 16.4876 8.60274L15.9994 8.95148ZM16.6351 9.37435C16.6205 9.36339 16.6295 9.36664 16.6644 9.41671C16.694 9.45929 16.7304 9.51801 16.7737 9.59282C16.8608 9.7432 16.9622 9.93422 17.0783 10.1482C17.3016 10.5598 17.5819 11.0631 17.8607 11.3717L18.3059 10.9695C18.0845 10.7244 17.8379 10.29 17.6057 9.86206C17.4941 9.65628 17.3856 9.4521 17.2929 9.29212C17.2464 9.21176 17.2004 9.13651 17.1568 9.07386C17.1184 9.01872 17.0633 8.9455 16.9951 8.89435L16.6351 9.37435ZM19.9767 24.4065C20.1974 24.2033 20.1974 24.2033 20.1975 24.2033C20.1975 24.2033 20.1975 24.2034 20.1975 24.2034C20.1975 24.2034 20.1975 24.2034 20.1975 24.2034C20.1974 24.2033 20.1973 24.2032 20.1972 24.203C20.1969 24.2027 20.1963 24.2021 20.1955 24.2012C20.1939 24.1995 20.1914 24.1966 20.1879 24.1928C20.181 24.1852 20.1706 24.1735 20.157 24.158C20.1298 24.1271 20.0901 24.0811 20.0414 24.0225C19.9438 23.905 19.8109 23.7376 19.67 23.5387C19.3837 23.1344 19.0836 22.6259 18.9635 22.1534L18.382 22.3012C18.5298 22.8825 18.8817 23.4637 19.1804 23.8854C19.332 24.0996 19.4748 24.2794 19.5799 24.4059C19.6325 24.4692 19.6758 24.5194 19.7063 24.5541C19.7216 24.5715 19.7336 24.585 19.742 24.5943C19.7463 24.599 19.7496 24.6026 19.7519 24.6052C19.7531 24.6065 19.754 24.6075 19.7547 24.6083C19.755 24.6086 19.7553 24.6089 19.7555 24.6092C19.7556 24.6093 19.7557 24.6094 19.7558 24.6095C19.7558 24.6095 19.7559 24.6096 19.7559 24.6096C19.7559 24.6096 19.756 24.6097 19.9767 24.4065ZM18.9631 22.1517C18.8794 21.8301 18.7954 21.4711 18.707 21.0917C18.619 20.7137 18.5268 20.3162 18.4278 19.9234C18.2308 19.1423 18.0015 18.3574 17.7103 17.756L17.1703 18.0176C17.4327 18.5594 17.65 19.2927 17.846 20.0701C17.9434 20.4566 18.0343 20.8484 18.1227 21.2278C18.2107 21.6058 18.2964 21.9725 18.3824 22.3029L18.9631 22.1517ZM17.7112 17.7579C16.9808 16.2223 15.8486 15.2024 14.2913 14.6395L14.0874 15.2038C15.4952 15.7127 16.5065 16.6219 17.1693 18.0156L17.7112 17.7579ZM13.8894 14.9274C13.9062 15.8009 13.6436 16.9098 13.1236 17.841C12.6024 18.7745 11.8527 19.4799 10.9216 19.6456L11.0267 20.2363C12.2034 20.0269 13.0791 19.1515 13.6475 18.1335C14.2171 17.1133 14.5082 15.9001 14.4893 14.9159L13.8894 14.9274ZM10.926 19.6448C10.5218 19.7106 10.1618 19.8136 9.90359 19.8997C9.77409 19.9429 9.66921 19.9821 9.59602 20.0108C9.55941 20.0252 9.53066 20.037 9.51066 20.0454C9.50066 20.0495 9.49284 20.0529 9.48731 20.0553C9.48455 20.0564 9.48235 20.0574 9.48075 20.0581C9.47994 20.0584 9.47929 20.0587 9.47878 20.059C9.47852 20.0591 9.47831 20.0592 9.47813 20.0592C9.47804 20.0593 9.47796 20.0593 9.47788 20.0593C9.47785 20.0594 9.4778 20.0594 9.47778 20.0594C9.47774 20.0594 9.4777 20.0594 9.59879 20.3339C9.71988 20.6084 9.71984 20.6084 9.71981 20.6084C9.7198 20.6084 9.71977 20.6084 9.71975 20.6084C9.71972 20.6084 9.71969 20.6085 9.71968 20.6085C9.71964 20.6085 9.71965 20.6085 9.71969 20.6085C9.71977 20.6084 9.72 20.6083 9.72037 20.6082C9.7211 20.6078 9.72242 20.6073 9.72429 20.6065C9.72803 20.6049 9.73401 20.6023 9.74211 20.5989C9.75832 20.5921 9.78302 20.582 9.81534 20.5693C9.88003 20.5439 9.97499 20.5084 10.0933 20.4689C10.3307 20.3898 10.6585 20.2963 11.0224 20.237L10.926 19.6448ZM9.31196 20.246C8.96162 21.3892 8.74165 23.1106 8.92589 24.6214L9.52148 24.5488C9.34848 23.1302 9.5572 21.4935 9.88562 20.4218L9.31196 20.246ZM8.92594 24.6218C8.96721 24.9566 9.02437 25.2831 9.0781 25.5885C9.13237 25.897 9.18261 26.1811 9.21379 26.4445C9.27799 26.9869 9.24787 27.3546 9.08327 27.5951L9.57845 27.934C9.87826 27.4958 9.87494 26.9257 9.80963 26.374C9.77607 26.0904 9.72248 25.7884 9.66902 25.4845C9.61502 25.1776 9.56054 24.8656 9.52143 24.5484L8.92594 24.6218ZM9.08124 27.5981C8.94065 27.809 8.68253 27.9951 8.33783 28.235C8.01539 28.4594 7.62833 28.7248 7.34611 29.0776L7.81463 29.4524C8.03255 29.18 8.34211 28.963 8.68057 28.7275C8.99677 28.5074 9.36382 28.2559 9.58047 27.931L9.08124 27.5981ZM7.34845 29.0747C6.75429 29.7988 6.40691 30.4627 6.10896 31.1086C5.80874 31.7595 5.57024 32.3628 5.17877 33.0239L5.69506 33.3296C6.10739 32.6332 6.36903 31.9773 6.65379 31.3599C6.94083 30.7376 7.26327 30.1244 7.81229 29.4553L7.34845 29.0747ZM13.1201 38.5602C14.6852 37.3745 15.5507 35.2305 15.7584 33.0964C15.9658 30.9646 15.5264 28.7442 14.3633 27.3904L13.9082 27.7814C14.9242 28.964 15.3601 30.9948 15.1612 33.0383C14.9625 35.0795 14.14 37.0348 12.7578 38.0819L13.1201 38.5602ZM19.6978 27.2968C19.1262 28.7389 18.6237 29.5178 17.9894 30.127C17.3398 30.7509 16.5475 31.2058 15.3299 31.9963L15.6566 32.4995C16.8326 31.7361 17.7015 31.2354 18.405 30.5598C19.1237 29.8695 19.6661 29.005 20.2556 27.5178L19.6978 27.2968ZM19.7111 39.3732C18.4643 38.5655 17.7577 37.9057 17.1998 37.1455C16.6327 36.3728 16.214 35.4919 15.5454 34.1999L15.0125 34.4757C15.6657 35.738 16.1133 36.6791 16.7161 37.5005C17.3282 38.3346 18.0952 39.0412 19.3849 39.8768L19.7111 39.3732ZM9.04659 24.3429C8.44323 24.7842 8.04735 25.1149 7.72105 25.5137C7.39569 25.9114 7.15074 26.3632 6.82831 27.026L7.36785 27.2885C7.68846 26.6294 7.90793 26.2328 8.18542 25.8937C8.46197 25.5557 8.80738 25.2612 9.40078 24.8272L9.04659 24.3429ZM6.82814 27.0263C6.62722 27.4407 6.7368 27.9032 6.88133 28.2716C7.02712 28.6431 7.25551 29.0262 7.38522 29.2775L7.9184 29.0023C7.76231 28.6999 7.57094 28.3864 7.43987 28.0524C7.30754 27.7152 7.28315 27.4632 7.36803 27.2881L6.82814 27.0263ZM10.6884 28.0146C10.7945 27.734 10.7944 27.734 10.7943 27.734C10.7943 27.7339 10.7942 27.7339 10.7941 27.7339C10.794 27.7338 10.7938 27.7338 10.7937 27.7337C10.7933 27.7336 10.793 27.7334 10.7926 27.7333C10.7917 27.733 10.7907 27.7326 10.7896 27.7322C10.7873 27.7313 10.7843 27.7303 10.7808 27.729C10.7736 27.7265 10.7639 27.7232 10.7519 27.7192C10.7278 27.7114 10.6943 27.7011 10.6526 27.6899C10.5694 27.6677 10.4524 27.6416 10.3128 27.6251C10.0363 27.5925 9.65397 27.5952 9.26906 27.7556L9.49982 28.3094C9.75795 28.2018 10.0276 28.1956 10.2423 28.221C10.3483 28.2335 10.4367 28.2533 10.4976 28.2695C10.5278 28.2776 10.5509 28.2848 10.5656 28.2896C10.5729 28.2919 10.578 28.2937 10.5808 28.2947C10.5823 28.2952 10.5831 28.2955 10.5833 28.2956C10.5834 28.2957 10.5834 28.2956 10.5832 28.2956C10.5831 28.2955 10.583 28.2955 10.5828 28.2954C10.5827 28.2954 10.5827 28.2954 10.5826 28.2953C10.5825 28.2953 10.5824 28.2953 10.5824 28.2953C10.5823 28.2952 10.5822 28.2952 10.6884 28.0146ZM9.27302 27.7539C8.95154 27.8825 8.73953 27.9857 8.60445 28.0594C8.53683 28.0962 8.48812 28.1259 8.45436 28.148C8.43747 28.159 8.42426 28.1681 8.41425 28.1754C8.40924 28.179 8.40503 28.1821 8.40155 28.1847C8.39981 28.186 8.39825 28.1872 8.39687 28.1883C8.39618 28.1889 8.39553 28.1894 8.39493 28.1898C8.39462 28.1901 8.39433 28.1903 8.39405 28.1905C8.39391 28.1906 8.39377 28.1908 8.39363 28.1909C8.39357 28.1909 8.39347 28.191 8.39343 28.191C8.39333 28.1911 8.39324 28.1912 8.58064 28.4254C8.76805 28.6597 8.76796 28.6598 8.76786 28.6599C8.76783 28.6599 8.76773 28.66 8.76767 28.66C8.76755 28.6601 8.76742 28.6602 8.76731 28.6603C8.76707 28.6605 8.76684 28.6607 8.76663 28.6608C8.7662 28.6612 8.76582 28.6615 8.76548 28.6617C8.76481 28.6623 8.76434 28.6626 8.76406 28.6628C8.7635 28.6633 8.76373 28.6631 8.76483 28.6623C8.76703 28.6607 8.77266 28.6567 8.78228 28.6504C8.80155 28.6379 8.83658 28.6162 8.89176 28.5861C9.00228 28.5258 9.19217 28.4325 9.49586 28.311L9.27302 27.7539ZM18.5299 21.6021C18.7497 21.398 18.7497 21.3979 18.7496 21.3979C18.7496 21.3979 18.7495 21.3978 18.7495 21.3978C18.7494 21.3977 18.7493 21.3976 18.7492 21.3975C18.749 21.3973 18.7488 21.397 18.7485 21.3967C18.748 21.3961 18.7472 21.3953 18.7463 21.3944C18.7445 21.3925 18.742 21.3898 18.7389 21.3866C18.7327 21.38 18.7238 21.3708 18.7125 21.3593C18.6899 21.3363 18.6575 21.3041 18.6166 21.2653C18.5351 21.188 18.4187 21.0835 18.2787 20.9746C18.007 20.7633 17.6114 20.5073 17.1896 20.4316L17.0836 21.0222C17.3585 21.0715 17.6595 21.2531 17.9103 21.4482C18.0314 21.5424 18.1328 21.6333 18.2037 21.7006C18.239 21.7341 18.2664 21.7614 18.2847 21.78C18.2938 21.7892 18.3005 21.7963 18.3048 21.8008C18.307 21.803 18.3085 21.8046 18.3094 21.8056C18.3098 21.806 18.3101 21.8063 18.3102 21.8064C18.3102 21.8065 18.3103 21.8065 18.3102 21.8065C18.3102 21.8065 18.3102 21.8064 18.3102 21.8064C18.3101 21.8064 18.3101 21.8063 18.3101 21.8063C18.3101 21.8063 18.31 21.8063 18.5299 21.6021ZM17.1916 20.432C16.6609 20.333 15.8795 20.2647 15.1895 20.1664C14.4638 20.063 13.8184 19.9252 13.4289 19.6993L13.1279 20.2183C13.6315 20.5104 14.3883 20.6584 15.1049 20.7604C15.8573 20.8676 16.5584 20.9242 17.0816 21.0218L17.1916 20.432ZM11.9257 20.5102C11.9771 21.4139 12.2218 22.3621 12.3766 23.1597L12.9656 23.0454C12.8006 22.195 12.5731 21.3259 12.5247 20.4761L11.9257 20.5102ZM13.4272 19.6983C13.1073 19.5155 12.7323 19.5087 12.4342 19.6512C12.1275 19.7978 11.9026 20.1057 11.9257 20.5102L12.5247 20.4761C12.5169 20.3389 12.5831 20.2451 12.6929 20.1926C12.8113 20.136 12.9784 20.1329 13.1296 20.2193L13.4272 19.6983Z" fill="#62A196"/>
</svg>
